<?xml version="1.0" encoding="utf-8"?>
<!-- Svg Vector Icons : http://www.onlinewebfonts.com/icon -->
<!DOCTYPE svg PUBLIC "-//W3C//DTD SVG 1.1//EN" "http://www.w3.org/Graphics/SVG/1.1/DTD/svg11.dtd">
<svg fill="white" version="1.1" xmlns="http://www.w3.org/2000/svg" xmlns:xlink="http://www.w3.org/1999/xlink" x="0px" y="0px" viewBox="0 0 1000 1000" enable-background="new 0 0 1000 1000" xml:space="preserve">
<metadata> Svg Vector Icons : http://www.onlinewebfonts.com/icon </metadata>
<g><g transform="translate(0.000000,119.000000) scale(0.100000,-0.100000)"><path d="M100-3810v-3850h4900h4900v3850V40H5000H100V-3810z M2882.5-2147.5c341.3-297.5,630-577.5,630-612.5c0-43.8-341.2-367.5-761.3-735L1990-4160l-253.7,245l-253.8,236.3l516.3,463.7l507.5,455l-507.5,455l-507.5,446.2l236.3,245c201.2,218.8,262.5,236.2,376.2,140C2182.5-1535,2532.5-1841.2,2882.5-2147.5z M5700-3810v-350H4650H3600v350v350h1050h1050V-3810z"/></g></g>
</svg>